<svg width="15" height="14" viewBox="0 0 15 14" fill="none" xmlns="http://www.w3.org/2000/svg">
<path d="M12.2744 8.758C11.7685 8.25849 11.1368 8.25849 10.6341 8.758C10.2506 9.13828 9.86711 9.51855 9.49006 9.90527C9.38693 10.0116 9.29992 10.0342 9.17424 9.96328C8.92609 9.82793 8.66183 9.71836 8.42336 9.57011C7.31154 8.87079 6.38019 7.97167 5.55518 6.95975C5.14591 6.45702 4.78174 5.91883 4.52715 5.31297C4.47559 5.19051 4.48526 5.10994 4.58516 5.01004C4.96866 4.63943 5.34249 4.25916 5.71954 3.87888C6.24483 3.35037 6.24483 2.73161 5.71632 2.19987C5.41661 1.89694 5.1169 1.60046 4.81719 1.29753C4.50782 0.988151 4.20166 0.675553 3.88907 0.369399C3.38311 -0.123669 2.75146 -0.123669 2.24873 0.372622C1.86201 0.752897 1.4914 1.14284 1.09824 1.51667C0.734076 1.86149 0.550384 2.28366 0.511712 2.77673C0.450481 3.57918 0.647064 4.3365 0.924213 5.07449C1.4914 6.60204 2.35508 7.95878 3.40244 9.20273C4.81719 10.885 6.50587 12.2159 8.48136 13.1763C9.37082 13.6081 10.2925 13.9401 11.2948 13.9948C11.9844 14.0335 12.5838 13.8595 13.064 13.3213C13.3927 12.9539 13.7633 12.6188 14.1114 12.2675C14.627 11.7454 14.6302 11.1138 14.1178 10.5981C13.5055 9.98261 12.89 9.37031 12.2744 8.758Z" fill="#929AA2"/>
</svg>
